<svg xmlns="http://www.w3.org/2000/svg" width="240" height="217" viewBox="0 0 240 217" fill="none">
  <g>
      <path d="M115.516 36.0977L140.188 0L240 142.699H190.655L115.516 36.0977Z" fill="#17A050"/>
      <path d="M63.3642 49.0721L42.0561 80.6577L105.98 123.524L127.289 92.5022L63.3642 49.0721Z" fill="#833FB0"/>
      <path d="M140.092 73.9951L128.186 91.013L93.7874 67.5908L114.289 37.9462L140.092 73.9951Z" fill="#F09219"/>
      <path d="M49.3451 142.7L74.7825 105.328L41.1407 82.7615L0 142.7H49.3451Z" fill="#299CE8"/>
      <path d="M168.224 123.52L141.309 85.1664L114.393 123.52H168.224Z" fill="#AD1508"/>
  </g>
  <g>
      <path fill-rule="evenodd" clip-rule="evenodd" d="M97.7583 205.203L93.6751 217H80.6267L102.907 155H117.375L139.655 217H126.518L122.435 205.203H97.7583ZM119.062 195.269L110.097 169.369L101.131 195.269H119.062Z" fill="#ffffff"/>
      <path fill-rule="evenodd" clip-rule="evenodd" d="M43.7611 190.479C41.5124 187.641 38.6424 185.896 35.1509 185.246C38.3465 184.241 40.8911 182.526 42.7847 180.102C44.7375 177.677 45.714 174.661 45.714 171.054C45.714 167.979 44.9151 165.23 43.3173 162.805C41.7787 160.381 39.4708 158.489 36.3936 157.129C33.3756 155.769 29.7659 155.089 25.5643 155.089H0V217H26.7183C30.9198 217 34.5592 216.29 37.6363 214.871C40.7135 213.452 43.051 211.501 44.6488 209.017C46.3057 206.474 47.1342 203.547 47.1342 200.236C47.1342 196.57 46.0098 193.317 43.7611 190.479ZM23.789 180.634H12.4271V165.112H23.789C26.7478 165.112 29.0261 165.792 30.6239 167.152C32.2217 168.512 33.0206 170.433 33.0206 172.917C33.0206 175.401 32.2217 177.322 30.6239 178.682C29.0261 179.983 26.7478 180.634 23.789 180.634ZM31.9554 204.76C30.2984 206.179 27.961 206.888 24.943 206.888H12.4271V190.213H24.6767C27.6947 190.213 30.0913 190.982 31.8666 192.519C33.6419 193.998 34.5296 196.067 34.5296 198.728C34.5296 201.33 33.6715 203.34 31.9554 204.76Z" fill="#ffffff"/>
      <path d="M240 155.089V217H227.573V176.731L210.974 217H201.565L184.877 176.731V217H172.45V155.089H186.563L206.269 201.123L225.975 155.089H240Z" fill="#ffffff"/>
  </g>
</svg>